<svg id="visual" viewBox="0 0 1920 1920" width="1920" height="1920" xmlns="http://www.w3.org/2000/svg" xmlns:xlink="http://www.w3.org/1999/xlink" version="1.1"><path d="M0 500L64 500C128 500 256 500 384 532C512 564 640 628 768 640.8C896 653.7 1024 615.3 1152 564.2C1280 513 1408 449 1536 449C1664 449 1792 513 1856 545L1920 577L1920 0L1856 0C1792 0 1664 0 1536 0C1408 0 1280 0 1152 0C1024 0 896 0 768 0C640 0 512 0 384 0C256 0 128 0 64 0L0 0Z" fill="#ffa359"></path><path d="M0 865L64 884.2C128 903.3 256 941.7 384 996C512 1050.3 640 1120.7 768 1111.2C896 1101.7 1024 1012.3 1152 922.8C1280 833.3 1408 743.7 1536 724.3C1664 705 1792 756 1856 781.5L1920 807L1920 575L1856 543C1792 511 1664 447 1536 447C1408 447 1280 511 1152 562.2C1024 613.3 896 651.7 768 638.8C640 626 512 562 384 530C256 498 128 498 64 498L0 498Z" fill="#ff8d35"></path><path d="M0 1057L64 1089C128 1121 256 1185 384 1236.2C512 1287.3 640 1325.7 768 1306.5C896 1287.3 1024 1210.7 1152 1137.2C1280 1063.7 1408 993.3 1536 990.2C1664 987 1792 1051 1856 1083L1920 1115L1920 805L1856 779.5C1792 754 1664 703 1536 722.3C1408 741.7 1280 831.3 1152 920.8C1024 1010.3 896 1099.7 768 1109.2C640 1118.7 512 1048.3 384 994C256 939.7 128 901.3 64 882.2L0 863Z" fill="#ff7400"></path><path d="M0 1249L64 1287.3C128 1325.7 256 1402.3 384 1469.5C512 1536.7 640 1594.3 768 1575.2C896 1556 1024 1460 1152 1383.2C1280 1306.3 1408 1248.7 1536 1232.7C1664 1216.7 1792 1242.3 1856 1255.2L1920 1268L1920 1113L1856 1081C1792 1049 1664 985 1536 988.2C1408 991.3 1280 1061.7 1152 1135.2C1024 1208.7 896 1285.3 768 1304.5C640 1323.7 512 1285.3 384 1234.2C256 1183 128 1119 64 1087L0 1055Z" fill="#dc6404"></path><path d="M0 1921L64 1921C128 1921 256 1921 384 1921C512 1921 640 1921 768 1921C896 1921 1024 1921 1152 1921C1280 1921 1408 1921 1536 1921C1664 1921 1792 1921 1856 1921L1920 1921L1920 1266L1856 1253.2C1792 1240.3 1664 1214.7 1536 1230.7C1408 1246.7 1280 1304.3 1152 1381.2C1024 1458 896 1554 768 1573.2C640 1592.3 512 1534.7 384 1467.5C256 1400.3 128 1323.7 64 1285.3L0 1247Z" fill="#ba5506"></path></svg>